<svg width="260" height="187" viewBox="0 0 260 187" fill="none" xmlns="http://www.w3.org/2000/svg">
<rect y="68.3259" width="190" height="26" rx="13" fill="#606060" fill-opacity="0.15"/>
<rect x="47" y="34.3259" width="194" height="34" rx="17" fill="#606060" fill-opacity="0.15"/>
<rect x="26" y="94.3259" width="200" height="25" rx="12.5" fill="#606060" fill-opacity="0.15"/>
<rect x="233" y="94.3259" width="27" height="25" rx="12.5" fill="#606060" fill-opacity="0.15"/>
<rect x="2" y="119.326" width="214" height="26" rx="13" fill="#606060" fill-opacity="0.15"/>
<rect x="17" y="145.326" width="177" height="25" rx="12.5" fill="#606060" fill-opacity="0.15"/>
<rect x="54.7319" y="173.705" width="2.91241" height="130.732" rx="1.4562" transform="rotate(-90 54.7319 173.705)" fill="black"/>
<rect x="190.341" y="173.705" width="2.91241" height="13.6585" rx="1.4562" transform="rotate(-90 190.341 173.705)" fill="black"/>
<rect x="44" y="173.705" width="2.91241" height="6.82927" rx="1.4562" transform="rotate(-90 44 173.705)" fill="black"/>
<path d="M110.793 115.457C110.793 133.388 96.1834 147.935 78.1463 147.935C60.1093 147.935 45.5 133.388 45.5 115.457C45.5 97.5272 60.1093 82.9792 78.1463 82.9792C96.1834 82.9792 110.793 97.5272 110.793 115.457Z" fill="white" stroke="black" stroke-width="3"/>
<path d="M96.1587 115.457C96.1587 125.345 88.1013 133.373 78.1465 133.373C68.1916 133.373 60.1343 125.345 60.1343 115.457C60.1343 105.57 68.1916 97.5413 78.1465 97.5413C88.1013 97.5413 96.1587 105.57 96.1587 115.457Z" fill="#E7E7E7" stroke="black" stroke-width="3"/>
<rect x="79.6465" y="54.8259" width="94.561" height="130" rx="6.5" fill="white" stroke="black" stroke-width="3"/>
<rect x="159.122" y="62.0631" width="2.92683" height="53.3942" rx="1.46341" fill="black"/>
<rect x="159.122" y="119.341" width="2.92683" height="7.76642" rx="1.46341" fill="black"/>
<path d="M131.159 47.15C123.105 48.0708 120.556 25.7751 128.61 24.8544C135.128 24.1093 132.579 1.81367 126.061 2.5588" stroke="black" stroke-width="2"/>
<path d="M117.164 42.9066C109.176 44.2862 106.089 26.4145 114.077 25.0349C120.542 23.9185 117.456 6.04678 110.991 7.16322" stroke="black" stroke-width="2"/>
<path d="M146.483 42.0089C138.515 43.4998 135.262 26.1108 143.23 24.6199C149.678 23.4133 146.424 6.0243 139.976 7.2309" stroke="black" stroke-width="2"/>
</svg>
